<svg id="Icons" xmlns="http://www.w3.org/2000/svg" viewBox="0 0 16 16"><title>KnowledgeGraphLayer16</title><rect width="16" height="16" style="fill:none"/><rect width="16" height="16" style="fill:none"/><path d="M16,14.4004s-3.2002-1.6016-8,0c-4.7998,1.5996-8,0-8,0L2.1328,1.5996A9.76179,9.76179,0,0,0,8,1.5996a9.76179,9.76179,0,0,1,5.8672,0Z" style="fill:#e5d255"/><rect width="16" height="16" style="fill:none"/><path d="M4,14.5a1.48747,1.48747,0,0,0,.12921.60382A13.37589,13.37589,0,0,0,8,14.40039a13.02047,13.02047,0,0,1,4.74158-.69739,1.60986,1.60986,0,0,0-.08252-.14337l.44873-2.691A1.50022,1.50022,0,0,0,14,9.5v-1A1.50164,1.50164,0,0,0,12.5,7h-1a1.50031,1.50031,0,0,0-.306.0318L9.993,6.4314A1.49823,1.49823,0,0,0,8.5,5h-1A1.50164,1.50164,0,0,0,6,6.5v.52014L5.0199,8H4.5A1.50164,1.50164,0,0,0,3,9.5v1a1.49687,1.49687,0,0,0,1.037,1.41937l.19635.7851A1.48631,1.48631,0,0,0,4,13.5Z" style="fill:#f4eec8"/><path d="M7.9209,6.51367,4.55713,9.877l1.11621,4.46582,5.65332,1.13086,1.1167-6.69922Zm.52923,3.9364L5.78235,9.78351,7.7832,7.78229Zm.14881-2.70373,2.607,1.30389L9.252,10.3587Zm.28821,3.92248,1.389,2.77814L6.81,13.75391Zm.6286-.53186,1.93762-1.29175-.64575,3.87543ZM5.5495,10.54944l2.66772.66742L6.21667,13.21741Z" style="fill:#828282"/><rect x="10" y="14" width="2" height="2" rx="0.5" style="fill:#57a6d9"/><rect x="4" y="9" width="2" height="2" rx="0.5" style="fill:#57a6d9"/><rect x="5" y="13" width="2" height="2" rx="0.5" style="fill:#9182bd"/><rect x="7" y="6" width="2" height="2" rx="0.5" style="fill:#9182bd"/><rect x="11" y="8" width="2" height="2" rx="0.5" style="fill:#9182bd"/><rect x="8" y="10" width="2" height="2" rx="0.5" style="fill:#57a6d9"/></svg>