<?xml version="1.0" encoding="UTF-8"?><svg id="Icons" xmlns="http://www.w3.org/2000/svg" viewBox="0 0 32 32"><path d="m31,28s-6-3-15,0-15,0-15,0L5,4s6,2,11,0,11,0,11,0l4,24Z" style="fill:#e9d133;"/><rect width="32" height="32" style="fill:none;"/><rect width="32" height="32" style="fill:none;"/><path d="m15.50096,25.8c-5.12848,0-9.30096-4.17104-9.30096-9.29809,0-5.12896,4.17248-9.30191,9.30096-9.30191,5.12752,0,9.29904,4.17295,9.29904,9.30191,0,5.12705-4.17152,9.29809-9.29904,9.29809Z" style="fill:#d9efd9;"/><path d="m15.50074,24.8c-4.57738,0-8.30074-3.72303-8.30074-8.29853,0-4.57771,3.72336-8.30147,8.30074-8.30147,4.57591,0,8.29926,3.72376,8.29926,8.30147,0,4.5755-3.72336,8.29853-8.29926,8.29853Z" style="fill:#0d9636;"/><polygon points="18.999 16.49829 13 12 13 20.99829 18.999 16.49829" style="fill:#d9efd9;"/><path d="m31,28l-1.32434-7.94598c-1.06989-.66388-2.3266-1.05402-3.67566-1.05402-3.85986,0-7,3.14062-7,7,0,.3985.0412.7868.10547,1.1673,7.24664-1.4856,11.89453.8327,11.89453.8327Z" style="fill:#f8f8f8;"/><ellipse cx="26" cy="26" rx="5.80167" ry="5.9" style="fill:#c7552e;"/></svg>