<?xml version="1.0" encoding="UTF-8"?><svg id="Icons" xmlns="http://www.w3.org/2000/svg" viewBox="0 0 32 32"><rect width="32" height="32" style="fill:none; stroke-width:0px;"/><polygon points="28 31 4 31 4 1 21.29979 1 28 7.6992 28 31" style="fill:#6e6e6e; stroke-width:0px;"/><polygon points="27 7.9902 21.00979 2 5 2 5 30 27 30 27 7.9902" style="fill:#f8f8f8; stroke-width:0px;"/><rect x="20" y="2" width="1" height="7" style="fill:#6e6e6e; stroke-width:0px;"/><rect x="20" y="8" width="8" height="1" style="fill:#6e6e6e; stroke-width:0px;"/><rect x="0" y="10" width="20" height="15.99609" rx="1" ry="1" style="fill:#6e6e6e; stroke-width:0px;"/><path d="m1,24.99605v-13.496c0-.27614.22386-.5.5-.5h17c.27614,0,.5.22386.5.5v12.996c0,.27611-.22381.5-.49992.5H1Z" style="fill:#f8f8f8; stroke-width:0px;"/><rect x="4" y="11.99805" width="12" height="7" style="fill:#d17e21; stroke-width:0px;"/><rect x="5" y="19.99805" width="10" height="1" style="fill:#d17e21; stroke-width:0px;"/><rect x="6" y="21.99805" width="8" height="1" style="fill:#d17e21; stroke-width:0px;"/><rect x="7.5" y="10.49805" width="5" height="10" transform="translate(25.49805 5.49805) rotate(90)" style="fill:#ff9f33; stroke-width:0px;"/><polygon points="5 17.16471 5 12.99805 15 12.99805 15 16.33138 12.08333 13.41472 8.75 16.74805 7.08333 15.08138 5 17.16471" style="fill:#fbe2c3; stroke-width:0px;"/></svg>