<?xml version="1.0" encoding="UTF-8"?><svg id="Icons" xmlns="http://www.w3.org/2000/svg" viewBox="0 0 16 16"><polygon points="15.49029 12.5 8.5 16 .4905 12.00002 7.50003 8.50002 15.49029 12.5" style="fill:#68aa67; stroke-width:0px;"/><polygon points="7.50003 4.44142 5.00003 5.69142 5.00003 8.69142 3.00003 9.69142 3.00003 12.30861 8.5 15.05859 13 12.80859 13 7.19141 7.50003 4.44142" style="fill:#a67032; stroke-width:0px;"/><polygon points="11.38232 7.49976 10.49957 7.94116 6.61758 5.99983 7.50003 5.55861 11.38232 7.49976" style="fill:#fbe2c3; stroke-width:0px;"/><polygon points="6.00003 6.80898 10 8.80859 10 10.19092 6.00003 8.19093 6.00003 6.80898" style="fill:#eeaa5a; stroke-width:0px;"/><polygon points="5.49954 9.55885 8.88234 11.25025 8.0005 11.69117 4.61771 9.99977 5.49954 9.55885" style="fill:#fbe2c3; stroke-width:0px;"/><polygon points="4.00003 10.8091 8 12.80908 8 13.69141 4.00003 11.69142 4.00003 10.8091" style="fill:#eeaa5a; stroke-width:0px;"/><polygon points="9 13.69141 9 12.80859 11 11.80859 11 8.80908 12 8.30908 12 12.19141 9 13.69141" style="fill:#f7cb93; stroke-width:0px;"/><path d="M3.71875,10.125c.19043.2373.47754.375.78125.375s.59082-.1377.78125-.375l2-2.5c.24023-.30078.28613-.71191.12012-1.05859-.16699-.3457-.5166-.56641-.90137-.56641h-.5v-.80859l-1,.5v3l-1.73438.86719.45312.56641Z" style="fill:#f8f8f8; stroke-width:0px;"/><polygon points="4 7 4 5 5 5 5 7 6.5 7 4.5 9.5 2.5 7 4 7" style="fill:#6e6e6e; stroke-width:0px;"/><polygon points=".97461 5.00003 3.60938 0 14.46289 0 12.5 5.00003 .97461 5.00003" style="fill:#3b8fc4; stroke-width:0px;"/><path d="M9.25,1h3.74609l-.39258,1h-3.85352l.5-1ZM7.75,2l.5-1h-4.03711l-.52704,1h4.06415ZM8.25,3l-.5,1h4.06836l.39258-1h-3.96094ZM7.25,3H3.15887l-.52704,1h4.11816l.5-1Z" style="fill:#d3eaf9; stroke-width:0px;"/><rect y="0" width="16" height="16" style="fill:none; stroke-width:0px;"/></svg>