<?xml version="1.0" encoding="UTF-8"?><svg id="Icons" xmlns="http://www.w3.org/2000/svg" viewBox="0 0 32 32"><defs><style>.cls-1{fill:#f8f8f8;}.cls-2{fill:#68aa67;}.cls-3{fill:#e89d48;}.cls-4{fill:#fbe2c3;}.cls-5{fill:#ddeedb;}.cls-6{fill:#d3eaf9;}.cls-7{fill:#6e6e6e;}.cls-8{fill:#57a6d9;}.cls-9{fill:#47a898;}</style></defs><path class="cls-7" d="M30,5.73999V23.51996c-6.40997-1.13995-8.13-1.04999-10.72998,1.44,0,0-.5,.52002-.77002,.77002-.27002-.25-.77002-.77002-.77002-.77002-.94-.89996-1.76001-1.48999-2.72998-1.81-1.71997-.57996-3.90002-.35999-8,.37V5.73999c8.03003-1.70001,10.14001,.19,11.5,1.06,1.35999-.87,3.46997-2.76001,11.5-1.06Z"/><path class="cls-1" d="M29,6.54999v15.77997c-1.88-.31995-3.42999-.50995-4.70001-.50995-2.35999,0-3.85999,.63-5.72998,2.41998,0,.01001-.03003,.03998-.07001,.08002-.03003-.03003-.04999-.05005-.04999-.05005-1.20001-1.15997-2.23999-1.82996-3.45001-2.16998v1.04999c-1.71997-.57996-3.90002-.35999-8,.37V15h1V6.54999c1.75-.33002,3.29999-.5,4.63-.5,2.94,0,4.15002,.81,5.03998,1.40002l.83002,.53998,.83002-.53998c.88995-.59003,2.09998-1.40002,5.03998-1.40002,1.33002,0,2.88,.16998,4.63,.5Z"/><path class="cls-1" d="M21.00012,5.50775c0,.08917-.00012,.46631-.00012,8.16901l5,4.69531,4-3.75623V5.73505c-4.65515-.9837-7.31573-.758-8.99988-.22729Z"/><path class="cls-9" d="M26,2c-2.2088,0-4,.79716-4,2.87263V13.24389l4,3.75611,4-3.75611V4.87263c0-2.07546-1.7912-2.87263-4-2.87263Z"/><path class="cls-1" d="M26,9c-1.10457,0-2-.89543-2-2s.89543-2,2-2,2,.89543,2,2v.0009c-.00004,1.10412-.89514,1.99914-1.99926,1.9991-.00025,0-.00049,0-.00074,0Z"/><path class="cls-7" d="M18.41669,6.86447c-.14819,0-.28241-.03113-.41669-.06198V24.5h1V6.76797c-.18134,.06024-.37433,.0965-.58331,.0965Z"/><rect class="cls-7" x="2" y="16" width="12" height="15" rx="2" ry="2"/><rect class="cls-1" x="3" y="17" width="10" height="13" rx="1" ry="1"/><rect class="cls-3" x="4" y="26" width="3" height="3"/><rect class="cls-4" x="5" y="27" width="1" height="1"/><rect class="cls-2" x="4" y="22" width="3" height="3"/><rect class="cls-5" x="5" y="23" width="1" height="1"/><rect class="cls-8" x="4" y="18" width="3" height="3"/><rect class="cls-6" x="4.9941" y="19" width="1" height="1"/><rect class="cls-7" x="8" y="19" width="4" height="1"/><rect class="cls-7" x="8" y="27" width="4" height="1"/><rect class="cls-7" x="8" y="23" width="4" height="1"/></svg>