<?xml version="1.0" encoding="UTF-8"?><svg id="Icons" xmlns="http://www.w3.org/2000/svg" viewBox="0 0 32 32"><rect x="0" y="0" width="32" height="32" style="fill:none; stroke-width:0px;"/><path d="m31,29.00007s-6-3-15,0-15,0-15,0L3.67999,12.90003l1.32001-7.89996s3.27002,1.08997,7,.85999c1.32001-.09003,2.69-.33002,4-.85999,5-2,11,0,11,0l4,24Z" style="fill:#e5d255; stroke-width:0px;"/><path d="m28.98997,17.55002v1.31c0,.29999-.14001.59003-.37.78003l-4.98999,4c-.19.14996-.41003.21997-.63.21997s-.44-.07001-.62-.21997l-.45001-.35004c.03003.08002.06.16998.06.26001v1.31c0,.29999-.14001.59003-.37.78003l-3.40002,2.71997c-.71997.17999-1.45996.39001-2.21997.64001-.34998.12-.69.21997-1.03003.31l-4.58997-3.66998c-.23999-.19-.38-.48004-.38-.78003v-1.31c0-.09003.03998-.16998.06-.26001l-.42999.35004c-.19.14996-.41003.21997-.63.21997s-.44-.07001-.62-.21997l-5-4c-.23999-.19-.38-.48004-.38-.78003v-1.31c0-.29999.14001-.59003.38-.78003l5-4c.17999-.13995.40997-.21997.63-.21997.21997,0,.44.08002.62.21997l4.98999,4c.22998.19.37.48004.37.78003v1.31c0,.09998-.02997.17999-.06.27002l.45001-.36005c.17999-.13995.40997-.21997.63-.21997.21997,0,.44.08002.62.21997l.42999.35004c-.02002-.09003-.06-.16998-.06-.26001v-1.31c0-.29999.14001-.59003.38-.78003l5-4c.17999-.13995.40997-.21997.63-.21997.21997,0,.44.08002.62.21997l4.98999,4c.22998.19.37.48004.37.78003Z" style="fill:#f4eec8; stroke-width:0px;"/><polygon points="20.99115 23.55347 20.99115 24.86007 16 28.86005 16 23.39008 20.99115 23.55347" style="fill:#196fa6; stroke-width:0px;"/><polygon points="16 23.39008 16 28.86005 11.00116 24.86007 11.00116 23.55347 16 23.39008" style="fill:#3b8fc4; stroke-width:0px;"/><polygon points="16.00629 19.55347 11 23.55347 16 27.55343 20.99115 23.55347 16.00629 19.55347" style="fill:#6db5e3; stroke-width:0px;"/><polygon points="13.99115 17.55347 13.99115 18.86007 9 22.86005 9 17.39008 13.99115 17.55347" style="fill:#196fa6; stroke-width:0px;"/><polygon points="9 17.39008 9 22.86005 4.00116 18.86007 4.00116 17.55347 9 17.39008" style="fill:#3b8fc4; stroke-width:0px;"/><polygon points="9.00629 13.55347 4 17.55347 9 21.55343 13.99115 17.55347 9.00629 13.55347" style="fill:#6db5e3; stroke-width:0px;"/><polygon points="27.99115 17.55347 27.99115 18.86007 23 22.86005 23 17.39008 27.99115 17.55347" style="fill:#196fa6; stroke-width:0px;"/><polygon points="23 17.39008 23 22.86005 18.00116 18.86007 18.00116 17.55347 23 17.39008" style="fill:#3b8fc4; stroke-width:0px;"/><polygon points="23.00629 13.55347 18 17.55347 23 21.55343 27.99115 17.55347 23.00629 13.55347" style="fill:#6db5e3; stroke-width:0px;"/><path d="m21.98998,9.55003v1.31c0,.29999-.14001.59003-.37.78003l-4.98999,4c-.19.14996-.41003.21997-.63.21997s-.44-.07001-.62-.21997l-5-4c-.23999-.19-.38-.48004-.38-.78003v-1.31c0-.29999.14001-.59003.38-.78003l4.12-3.28998h.01001c.5-.12,1-.27997,1.48999-.47998.21002-.08002.41998-.16003.63-.23004h.01001l4.97998,4c.22998.19.37.48004.37.78003Z" style="fill:#f4eec8; stroke-width:0px;"/><polygon points="20.99115 9.55347 20.99115 10.86007 16 14.86005 16 9.39008 20.99115 9.55347" style="fill:#275e26; stroke-width:0px;"/><polygon points="16 9.39008 16 14.86005 11.00116 10.86007 11.00116 9.55347 16 9.39008" style="fill:#5b945a; stroke-width:0px;"/><polygon points="16.00629 5.55347 11 9.55347 16 13.55343 20.99115 9.55347 16.00629 5.55347" style="fill:#9bc29c; stroke-width:0px;"/><polygon points="8.99731 13.9217 9 13.9228 9 13.92219 8.99731 13.9217" style="fill:#419ed9; stroke-width:0px;"/><polygon points="9 13.92219 8.99731 13.9217 9 13.9228 9 13.92219" style="fill:#f4eec8; stroke-width:0px;"/><polygon points="8.99731 10.9217 9 10.9228 9 10.92219 8.99731 10.9217" style="fill:#419ed9; stroke-width:0px;"/><polygon points="9 10.92219 8.99731 10.9217 9 10.9228 9 10.92219" style="fill:#f4eec8; stroke-width:0px;"/><path d="m17,10.86035v-6.20325c-.33624.09882-.67041.21112-1,.34296-1.31.52997-2.67999.76996-4,.85999-3.72998.22998-7-.85999-7-.85999l-1.32001,7.89996-.15302.91943,3.98181,2.06824c.14453.0752.30273.1123.46094.1123.15723,0,.31445-.03711.45801-.11133l8.03027-4.13965c.33301-.1709.54199-.51465.54199-.88867Z" style="fill:#f8f8f8; fill-rule:evenodd; stroke-width:0px;"/><polygon points="7.96936 15.00004 -.00001 10.86044 -.00001 3.00004 7.96936 7.00004 7.96936 15.00004" style="fill:#6e6e6e; fill-rule:evenodd; stroke-width:0px;"/><polygon points="7.96936 15.00004 15.99999 10.86044 15.99999 3.00004 7.96936 7.00004 7.96936 15.00004" style="fill:#6e6e6e; fill-rule:evenodd; stroke-width:0px;"/><polygon points="-.00001 3.00004 7.96936 7.00004 15.99999 3.00004 7.97523 .00004 -.00001 3.00004" style="fill:#6e6e6e; fill-rule:evenodd; stroke-width:0px;"/><polygon points="7.99999 8.00004 .99999 4.76615 .99999 10.29394 7.99999 13.86044 7.99999 8.00004" style="fill:#a9a9a9; fill-rule:evenodd; stroke-width:0px;"/><polygon points="1.07318 3.64359 7.99999 7.00004 14.99999 3.63676 8.00588 1.07719 1.07318 3.64359" style="fill:#f8f8f8; fill-rule:evenodd; stroke-width:0px;"/></svg>