<?xml version="1.0" encoding="UTF-8"?><svg id="Icons" xmlns="http://www.w3.org/2000/svg" viewBox="0 0 16 16"><path d="m16,14.4s-3.20001-1.59998-8,0C3.20001,16.00003,0,14.4,0,14.4L1.42999,5.82004l.70001-4.22003s1.82001.60999,3.87.46002c.65997-.06,1.34998-.20001,2-.46002,2.66998-1.07001,5.87,0,5.87,0l2.13,12.79999Z" style="fill:#e5d255; stroke-width:0px;"/><path d="m14.7559,6.92377l-2.12311-1.70404c-.18262-.14648-.4043-.21973-.62598-.21973-.00232,0-.00452.00116-.00684.00116v-1.59882c0-.30371-.1377-.58984-.37402-.78027l-1.80634-1.44977c-.60565.06152-1.22534.18951-1.81964.42767-.65002.26001-1.34003.40002-2,.46002-.32257.02362-.63483.0238-.93982.01508l-.68323.54602c-.2373.18945-.37598.47754-.37598.78125v1.59863c-.21875.00134-.43719.07355-.61816.21777l-2.13733,1.70819-.5495,3.29694,2.68195,2.14624c.18207.14508.40302.21796.62305.21844v.59796c0,.30371.1377.59082.375.78125l1.25134,1.0014c.73669-.10956,1.52826-.28772,2.37268-.56921,1.43921-.47974,2.73071-.66833,3.83911-.70209.0946-.15503.16089-.32526.16089-.51135v-.59814c.00098,0,.00195.00049.00293.00049.22168,0,.44238-.07324.625-.21973l2.67706-2.14581-.54907-3.29956Z" style="fill:#f4eec8; stroke-width:0px;"/><polygon points="10.99998 12.40213 10.99998 13.18678 8.00263 15.5889 8.00263 12.30401 10.99998 12.40213" style="fill:#196fa6; stroke-width:0px;"/><polygon points="8.00263 12.30401 8.00263 15.5889 5.00067 13.18678 5.00067 12.40213 8.00263 12.30401" style="fill:#3b8fc4; stroke-width:0px;"/><polygon points="8.00641 10 4.99998 12.40213 8.00263 14.80423 10.99998 12.40213 8.00641 10" style="fill:#6db5e3; stroke-width:0px;"/><polygon points="10.99998 3.40213 10.99998 4.18678 8.00263 6.5889 8.00263 3.30401 10.99998 3.40213" style="fill:#275e26; stroke-width:0px;"/><polygon points="8.00263 3.30401 8.00263 6.5889 5.00067 4.18678 5.00067 3.40213 8.00263 3.30401" style="fill:#5b945a; stroke-width:0px;"/><path d="m8,1.59998c-.3772.15088-.76691.25201-1.15735.3299l-1.84265,1.47223,3.00262,2.4021,2.99738-2.4021-2.47247-1.98395c-.17737.05243-.35364.11212-.52753.18182Z" style="fill:#9bc29c; stroke-width:0px;"/><polygon points="6.99998 8.40213 6.99998 9.18678 4.00263 11.5889 4.00263 8.30401 6.99998 8.40213" style="fill:#196fa6; stroke-width:0px;"/><polygon points="4.00263 8.30401 4.00263 11.5889 1.00067 9.18678 1.00067 8.40213 4.00263 8.30401" style="fill:#3b8fc4; stroke-width:0px;"/><polygon points="4.00641 6 .99998 8.40213 4.00263 10.80423 6.99998 8.40213 4.00641 6" style="fill:#6db5e3; stroke-width:0px;"/><polygon points="14.99998 8.40213 14.99998 9.18678 12.00263 11.5889 12.00263 8.30401 14.99998 8.40213" style="fill:#196fa6; stroke-width:0px;"/><polygon points="12.00263 8.30401 12.00263 11.5889 9.00067 9.18678 9.00067 8.40213 12.00263 8.30401" style="fill:#3b8fc4; stroke-width:0px;"/><polygon points="12.00641 6 8.99998 8.40213 12.00263 10.80423 14.99998 8.40213 12.00641 6" style="fill:#6db5e3; stroke-width:0px;"/><rect x="-.00002" y="0" width="16" height="16" style="fill:none; stroke-width:0px;"/><path d="m8.44727,6.89453c.33887-.16992.55273-.51562.55273-.89453V2c0-.24097-.09387-.46277-.24396-.6402-.25446.06506-.50775.14069-.75604.24017-.65002.26001-1.34003.40002-2,.46002-2.04999.14996-3.87-.46002-3.87-.46002l-.70001,4.22003-.30969,1.85828,2.43243,1.21625c.14062.07031.29395.10547.44727.10547s.30664-.03516.44727-.10547l4-2Z" style="fill:#f8f8f8; stroke-width:0px;"/><polygon points="3.99998 8 -.00002 6 -.00002 2 3.99998 4 3.99998 8" style="fill:#6e6e6e; stroke-width:0px;"/><polygon points="3.99998 8 7.99998 6 7.99998 2 3.99998 4 3.99998 8" style="fill:#6e6e6e; stroke-width:0px;"/><polyline points="3.99998 4 7.99998 2 3.99998 0 -.00002 2" style="fill:#6e6e6e; stroke-width:0px;"/><polygon points="1.00098 2.5 4.00098 4 7.00098 2.5 4.00098 1 1.00098 2.5" style="fill:#f8f8f8; stroke-width:0px;"/><polygon points="3.99998 5 .99998 3.5 .99998 5.5 3.99998 7 3.99998 5" style="fill:#a9a9a9; stroke-width:0px;"/></svg>