<?xml version="1.0" encoding="UTF-8"?><svg id="Icons" xmlns="http://www.w3.org/2000/svg" viewBox="0 0 24 24"><path d="m24,21.59998s-3.51001-1.76001-9.03998-.76001c-.72003.13-1.49005.31-2.28003.55005-.21997.06-.45001.12994-.67999.20996-.09998.03003-.20001.07001-.29999.09003-.41003.13995-.79999.23999-1.17999.33997-6.37,1.64001-10.52002-.42999-10.52002-.42999l1.21002-7.25.44-2.66998.10999-.65002.40997-2.46997,1.03003-6.16003s2.73999.91003,5.79999.67004c.98999-.08002,2.02002-.28003,3-.67004,4-1.59998,8.79999,0,8.79999,0l1.54999,9.28003.44,2.65997,1.21002,7.26001Z" style="fill:#e5d255; stroke-width:0px;"/><path d="m11.37402,11.71387c.18262.14551.4043.21875.625.21875.22168,0,.44238-.07324.625-.21973l3.99707-3.20312c.2373-.18945.375-.47656.375-.78027v-1.0459c0-.30371-.1377-.58984-.37402-.78027l-3.99219-3.20312c-.18262-.14648-.4043-.21973-.62598-.21973-.2207,0-.44141.07324-.62402.21875l-4.00781,3.2041c-.2373.18945-.37598.47754-.37598.78125v1.04492c0,.30371.1377.59082.375.78125l4.00293,3.20312Z" style="fill:#f4eec8; stroke-width:0px;"/><path d="m22.78998,14.33997c-.04999.06-.10999.12-.16998.17004l-4,3.19995c-.17999.15002-.40002.22003-.62.22003s-.44-.07001-.63-.22003l-.45001-.35999c.04004.10999.08002.22003.08002.33002v1.04999c0,.29999-.14001.59003-.38.78003l-1.65997,1.32996c-.92999.17004-1.92004.41003-2.96002.76001-.51001.16998-1,.31-1.47998.42999l-3.15002-2.51996c-.23999-.19-.37-.48004-.37-.78003v-1.04999c0-.10999.03003-.22003.07001-.33002l-.45001.35999c-.17999.15002-.40002.22003-.62.22003s-.44-.07001-.63-.22003l-4-3.19995c-.06-.05005-.10999-.10004-.15997-.16003l.44-2.66998,3.72998-2.97998c.17999-.15002.40002-.22003.62-.22003.22998,0,.45001.07001.63.22003l3.98999,3.19995c.23999.19.38.48004.38.78003v1.04999c0,.12-.03998.22998-.08002.34003l.46002-.37c.17999-.15002.40002-.22003.62-.22003.22998,0,.45001.07001.63.22003l.44.34998c-.03998-.09998-.07001-.21002-.07001-.32001v-1.04999c0-.29999.13-.59003.37-.78003l4.01001-3.19995c.17999-.15002.40002-.22003.62-.22003.22998,0,.45001.07001.63.22003l3.71997,2.97998.44,2.65997Z" style="fill:#f4eec8; stroke-width:0px;"/><polygon points="15.9956 17.68363 15.9956 18.72984 11.99914 21.93266 11.99914 17.55281 15.9956 17.68363" style="fill:#196fa6; stroke-width:0px;"/><polygon points="12 17.54999 12 21.92999 11.70001 21.69 8 18.72998 8 17.67999 12 17.54999" style="fill:#3b8fc4; stroke-width:0px;"/><polygon points="12.00417 14.4808 7.9956 17.68363 11.99914 20.88643 15.9956 17.68363 12.00417 14.4808" style="fill:#6db5e3; stroke-width:0px;"/><polygon points="15.9956 6.68363 15.9956 7.72984 11.99914 10.93266 11.99914 6.55281 15.9956 6.68363" style="fill:#275e26; stroke-width:0px;"/><polygon points="11.99914 6.55281 11.99914 10.93266 7.99653 7.72984 7.99653 6.68363 11.99914 6.55281" style="fill:#5b945a; stroke-width:0px;"/><polygon points="12.00417 3.4808 7.9956 6.68363 11.99914 9.88643 15.9956 6.68363 12.00417 3.4808" style="fill:#9bc29c; stroke-width:0px;"/><polygon points="21.9956 12.68363 21.9956 13.72984 17.99914 16.93266 17.99914 12.55281 21.9956 12.68363" style="fill:#196fa6; stroke-width:0px;"/><polygon points="17.99914 12.55281 17.99914 16.93266 13.99653 13.72984 13.99653 12.68363 17.99914 12.55281" style="fill:#3b8fc4; stroke-width:0px;"/><polygon points="18.00417 9.4808 13.9956 12.68363 17.99914 15.88643 21.9956 12.68363 18.00417 9.4808" style="fill:#6db5e3; stroke-width:0px;"/><polygon points="9.9956 12.68363 9.9956 13.72984 5.99914 16.93266 5.99914 12.55281 9.9956 12.68363" style="fill:#196fa6; stroke-width:0px;"/><polygon points="5.99914 12.55281 5.99914 16.93266 1.99653 13.72984 1.99653 12.68363 5.99914 12.55281" style="fill:#3b8fc4; stroke-width:0px;"/><polygon points="6.00417 9.4808 1.9956 12.68363 5.99914 15.88643 9.9956 12.68363 6.00417 9.4808" style="fill:#6db5e3; stroke-width:0px;"/><path d="m12,15v6.92999l-.29999-.23999c-.41003.13995-.79999.23999-1.17999.33997-6.37,1.64001-10.52002-.42999-10.52002-.42999l1.21002-7.25.44-2.66998.10999-.65002c.08002-.01996.15997-.02997.23999-.02997h7c.33002,0,.65002.16998.83002.45001l2,3c.02997.03998.04999.07996.06.12.07001.13.10999.27997.10999.42999Z" style="fill:#f4eec8; fill-rule:evenodd; stroke-width:0px;"/><rect y="16" width="11" height="8" style="fill:#d3b490; stroke-width:0px;"/><polyline points="11 15 9 12 2 12 0 15" style="fill:#d3b490; fill-rule:evenodd; stroke-width:0px;"/><polygon points="6 15 6 12 5 12 5 15 0 15 0 16 5 16 6 16 11 16 11 15 6 15" style="fill:#e9ded4; fill-rule:evenodd; stroke-width:0px;"/><polygon points="5.5 17 3 20 4 20 4 22 7 22 7 20 8 20 5.5 17" style="fill:#595959; fill-rule:evenodd; stroke-width:0px;"/></svg>