<?xml version="1.0" encoding="UTF-8"?><svg id="Layer_1" xmlns="http://www.w3.org/2000/svg" viewBox="0 0 32 32"><line x1="14.01" y1="16" x2="5" y2="5.01" style="fill:none; stroke:#6e6e6e; stroke-miterlimit:10; stroke-width:2px;"/><line x1="14.01" y1="16" x2="5" y2="26" style="fill:none; stroke:#6e6e6e; stroke-miterlimit:10; stroke-width:2px;"/><line x1="14.01" y1="16" x2="26.99" y2="16" style="fill:none; stroke:#6e6e6e; stroke-miterlimit:10; stroke-width:2px;"/><path d="m23.79,11.5h6.39c.72,0,1.3.58,1.3,1.3v6.39c0,.72-.58,1.3-1.3,1.3h-6.39c-.72,0-1.3-.58-1.3-1.3v-6.39c0-.72.58-1.3,1.3-1.3Z" style="fill:#ddeedb; stroke-width:0px;"/><path d="m30.18,12c.44,0,.8.36.8.8v6.39c0,.44-.36.8-.8.8h-6.39c-.44,0-.8-.36-.8-.8v-6.39c0-.44.36-.8.8-.8h6.39m0-1h-6.39c-.99,0-1.8.81-1.8,1.8v6.39c0,.99.81,1.8,1.8,1.8h6.39c.99,0,1.8-.81,1.8-1.8v-6.39c0-.99-.81-1.8-1.8-1.8h0Z" style="fill:#68aa67; stroke-width:0px;"/><rect x=".5" y=".5" width="9" height="9" rx="1.3" ry="1.3" style="fill:#bddbee; stroke-width:0px;"/><path d="m8.2,1c.44,0,.8.36.8.8v6.39c0,.44-.36.8-.8.8H1.8c-.44,0-.8-.36-.8-.8V1.8c0-.44.36-.8.8-.8h6.39m0-1H1.8C.81,0,0,.81,0,1.8v6.39C0,9.19.81,10,1.8,10h6.39c.99,0,1.8-.81,1.8-1.8V1.8c0-.99-.81-1.8-1.8-1.8h0Z" style="fill:#57a6d9; stroke-width:0px;"/><rect x=".5" y="21.5" width="9" height="9" rx="1.3" ry="1.3" style="fill:#bddbee; stroke-width:0px;"/><path d="m8.2,22c.44,0,.8.36.8.8v6.39c0,.44-.36.8-.8.8H1.8c-.44,0-.8-.36-.8-.8v-6.39c0-.44.36-.8.8-.8h6.39m0-1H1.8C.81,21,0,21.81,0,22.8v6.39C0,30.19.81,31,1.8,31h6.39c.99,0,1.8-.81,1.8-1.8v-6.39c0-.99-.81-1.8-1.8-1.8h0Z" style="fill:#57a6d9; stroke-width:0px;"/><path d="m14.01,20.44c-2.45,0-4.44-1.99-4.44-4.44s1.99-4.44,4.44-4.44,4.44,1.99,4.44,4.44c0,2.45-1.99,4.44-4.44,4.44Z" style="fill:#f0e498; stroke-width:0px;"/><path d="m14.01,12.06c2.17,0,3.94,1.76,3.94,3.94h0c0,2.18-1.76,3.94-3.94,3.94-2.18,0-3.94-1.76-3.94-3.94,0-2.18,1.76-3.94,3.94-3.94,0,0,0,0,0,0m0-1h0c-2.72,0-4.94,2.22-4.94,4.94,0,2.72,2.22,4.94,4.94,4.94s4.94-2.22,4.94-4.94c0-2.73-2.22-4.94-4.94-4.94h0Z" style="fill:#b88b55; stroke-width:0px;"/></svg>