<?xml version="1.0" encoding="UTF-8"?><svg id="Icons" xmlns="http://www.w3.org/2000/svg" viewBox="0 0 32 32"><path d="M25,25h1v1.76257c3.15961.31818,4.99951,1.23743,4.99951,1.23743l-4-24s-6-2-11,0-11,0-11,0L.99951,27.98199s1.84027.91394,5.00049,1.22711v-2.20911h1v2.28131c2.42352.12451,5.47699-.12512,8.99951-1.29932,3.52301-1.17432,6.57678-1.42108,9.00049-1.29315v-1.68884Z" style="fill:#e5d255; stroke-width:0px;"/><rect width="32" height="32" style="fill:none; stroke-width:0px;"/><path d="M25.41797,14.91992q-.81689-.89661-1.34668-1.3457c-1.35156-1.13574-2.98145-1.95117-4.77344-2.33203-.07617-.01758-.15527-.02637-.2334-.02637-.55176,0-1.06445.5127-1.06445,1.06543v.71875h-8.58594c-.52637,0-1.04199.21387-1.41406.58594l-1.41406,1.41406c-.37207.37207-.58594.8877-.58594,1.41406v12.81305c.31439.03119.65906.04633,1,.06335v-12.87628c0-.2652.10535-.51959.29291-.70709l1.41418-1.41425c.18756-.1875.44189-.29285.70715-.29285h7.58575v2h-7.17139l-.82861.82861v12.34277l.82861.82861h12.34277l.82861-.82861v-7.17139h2v4.70959c.34094.01703.68561.03223,1,.06342v-5.77301h.71875c.3252,0,.62793-.14551.83105-.40039.1875-.2334.27246-.59277.21094-.88574-.38281-1.80176-1.20215-3.43848-2.34277-4.79395Z" style="fill:#f8f8f8; stroke-width:0px;"/><path d="M18.8,23c0,1.5464-1.2536,2.8-2.8,2.8s-2.8-1.2536-2.8-2.8,1.2536-2.8,2.8-2.8,2.8,1.2536,2.8,2.8ZM23,22v7.17139l-.82861.82861h-12.34277l-.82861-.82861v-12.34277l.82861-.82861h7.17139v-2h-7.58578c-.26523,0-.51956.10535-.70712.29288l-1.41418,1.41422c-.18756.18753-.29291.44189-.29291.70712v13.17157c0,.2652.10535.51956.29291.70709l1.41418,1.41422c.18756.18753.44189.29291.70712.29291h13.17157c.26523,0,.51956-.10538.70712-.29291l1.41418-1.41422c.18756-.18753.29291-.44189.29291-.70709v-7.58578h-2ZM19,17.42383c1.14911.50439,2.07178,1.42706,2.57617,2.57617h5.1427c.0405,0,.07166-.03862.06325-.07823-.81696-3.84897-3.85492-6.88694-7.70389-7.70389-.03962-.00841-.07823.02275-.07823.06325v5.1427Z" style="fill:#419ed9; stroke-width:0px;"/></svg>