<?xml version="1.0" encoding="UTF-8"?><svg id="Icons" xmlns="http://www.w3.org/2000/svg" viewBox="0 0 16 16"><path d="M13.8667,1.59961s-3.20117-1.06641-5.86719,0c-2.66602,1.06635-5.86719,0-5.86719,0L-.00049,14.40039s.72852.35883,2.00049.56641v-.9668h2v1.10901c1.14246-.01984,2.49176-.20612,3.99951-.70862,4.7998-1.60162,8,0,8,0L13.8667,1.59961Z" style="fill:#e5d255; stroke-width:0px;"/><rect y="0" width="16" height="16" style="fill:none; stroke-width:0px;"/><path d="M14.86914,8.75195c-.49121-2.31543-2.30566-4.12988-4.59766-4.61523-.07617-.01855-.16113-.02832-.23828-.02832-.50519,0-.93158.40631-1.00439.8974-.01013-.00031-.01862-.0058-.02881-.0058h-4.79297c-.40039,0-.77734.15625-1.06055.43945l-.70703.70703c-.2832.2832-.43945.66016-.43945,1.06055v7.58594c0,.06.01044.11804.01733.17676.32385.05225.69427.08789,1.08569.11163-.0614-.08478-.10303-.1825-.10303-.28845v-7.58582c0-.13263.05267-.25977.14648-.35358l.70709-.70709c.09375-.09375.22095-.14642.35352-.14642h3.79291v1h-3.58569l-.41431.41431v7.17139l.41431.41431h7.17139l.41431-.41431v-3.58569h1v2.72302c.36127.02441.69885.06122,1,.11041v-3.83344c0-.00592-.00323-.0108-.00336-.01672.2594-.03796.51147-.17273.6723-.37585.18457-.2334.26172-.56445.2002-.85547Z" style="fill:#f8f8f8; stroke-width:0px;"/><path d="M10,7.71191c.57455.2522,1.03589.71353,1.28809,1.28809h2.57077c.02044,0,.03632-.01976.03207-.03975-.40863-1.92397-1.9272-3.44254-3.85117-3.85117-.02-.00425-.03975.01163-.03975.03207v2.57077Z" style="fill:#419ed9; stroke-width:0px;"/><path d="M12,11v3.58569l-.41431.41431h-7.17139l-.41431-.41431v-7.17139l.41431-.41431h3.58569v-1h-3.79289c-.13261,0-.25978.05267-.35356.14644l-.70709.70711c-.09378.09377-.14645.22095-.14645.35356v7.58578c0,.1326.05267.25978.14645.35355l.70709.70711c.09378.09377.22095.14645.35356.14645h7.58578c.13261,0,.25978-.05269.35356-.14645l.70709-.70711c.09378-.09377.14645-.22095.14645-.35355v-3.79289h-1Z" style="fill:#419ed9; stroke-width:0px;"/><circle cx="8" cy="11" r="1.75" style="fill:#419ed9; stroke-width:0px;"/></svg>