<?xml version="1.0" encoding="UTF-8"?><svg id="Icons" xmlns="http://www.w3.org/2000/svg" viewBox="0 0 16 16"><defs><style>.cls-1{fill:#994ff1;}</style></defs><path class="cls-1" d="m14.93076,8.15228c0-.63881-.08757-1.25685-.24851-1.84459-.00802-.02929-.03306-.05075-.06323-.05419s-.05941.01182-.07383.03855c-.2789.51732-.57996.95612-1.07026,1.2766-.02299.01503-.03569.04173-.03281.06904.0124.11753.03597.23181.03597.35266,0,2.30353-1.48724,4.24103-3.54657,4.95776l.06848-.12476c1.3078-2.38208,1.89661-4.6344,2.16156-6.17725l.06274-.36536c.95135-.17474,1.67328-1.00452,1.67328-2.00635,0-1.12866-.91492-2.04358-2.04358-2.04358-1.11951,0-2.02625.90082-2.04095,2.01685l-.2688.07306c-2.95642.80347-5.01007,1.93243-6.27521,2.80316l-.11047.07605c-.04431-.02484-.08765-.05121-.13391-.07269.41388-2.49768,2.56818-4.40704,5.18323-4.40704.12087,0,.23511.02357.35264.03597.02731.00288.05395-.00979.06898-.03278.32044-.49032.7593-.8923,1.2767-1.17118.02673-.01441.042-.04363.03855-.0738s-.0249-.0552-.05419-.06322c-.58774-.16096-1.20579-.24858-1.84461-.24858C4.49719,1.16663,1.57349,3.81512,1.12634,7.24207c-.57233.35468-.95679.98328-.95679,1.70605,0,1.11102.90063,2.01166,2.01166,2.01166s2.01166-.90063,2.01166-2.01166c0-.20154-.03857-.39221-.09375-.57581l.11267-.07593c1.15204-.77643,3.02112-1.79199,5.69092-2.52521l.44745-.12292c.12048.13177.25525.24866.40625.34528l-.07886.44824c-.48669,2.76501-1.48065,4.71216-1.98163,5.64624-.18921-.05896-.38635-.09973-.59497-.09973-.71783,0-1.34338.37885-1.6994.94464-.74044-.27315-1.40524-.70298-1.94824-1.25584-.01826-.01859-.0476-.02053-.06811-.00444-.4621.36269-1.01503.60653-1.61291.69963-.05302.00826-.09751.04439-.11644.09461s-.00929.10663.02504.14787c.92717,1.1135,2.19311,1.93261,3.63929,2.30243.33429.64722,1.00201,1.08282,1.78076,1.08282.79346,0,1.47302-.45178,1.80042-1.11908,2.95599-.81366,5.02939-3.51404,5.02939-6.72864Z"/></svg>