<?xml version="1.0" encoding="UTF-8"?><svg id="Icons" xmlns="http://www.w3.org/2000/svg" viewBox="0 0 32 32"><defs><style>.cls-1{fill:#994ff1;}</style></defs><path class="cls-1" d="m29.82422,15.78931c0-1.33214-.19529-2.61754-.55151-3.83446-.01707-.05831-.06792-.10036-.1284-.10617s-.1184.02579-.14626.07979c-.46395.89914-1.12326,1.67978-1.92113,2.29033-.04014.03072-.06173.08016-.0569.13047.03239.33679.0498.678.0498,1.02329,0,4.57904-2.90967,8.4682-6.97656,9.94922-.00122-.00244-.00269-.00476-.00391-.0072.94324-1.8418,3.12775-6.26392,3.96729-12.58649,1.63214-.46277,2.83502-1.94763,2.83502-3.72809,0-2.14935-1.74237-3.89172-3.89166-3.89172-1.86865,0-3.42676,1.31848-3.80255,3.07495l-.14355.039c-5.71088,1.552-9.67963,3.73163-12.12793,5.41504-.26367-.15143-.54492-.27032-.84271-.35712.97168-4.85046,5.25256-8.50519,10.38892-8.50519.31442,0,.62493.01638.93227.04366.05044.00448.09961-.01747.13003-.05795.58569-.77936,1.33358-1.42747,2.19477-1.89587.05337-.02903.08369-.08763.07654-.14797s-.05031-.11023-.10899-.126c-1.12988-.30365-2.31573-.47036-3.54146-.47036C9.23657,2.12048,3.53333,7.26575,2.62665,13.93585c-.91748.71191-1.51831,1.81293-1.51831,3.06415,0,2.14929,1.74237,3.89166,3.89166,3.89166s3.89166-1.74237,3.89166-3.89166c0-.37592-.07013-.73206-.16962-1.07593l.01593-.01074c2.22162-1.49738,5.82355-3.45374,10.9624-4.87122.36084.58173.87048,1.05212,1.47614,1.37616-.71332,5.23346-2.42133,9.0274-3.33557,10.91888-.3916-.13245-.80396-.22058-1.2403-.22058-1.57404,0-2.92218.93909-3.53522,2.28351-1.6143-.55128-3.05564-1.47618-4.21506-2.67815-.03476-.03603-.09024-.04158-.13154-.01328-.88622.6073-1.91865,1.00505-3.02285,1.13424-.10765.01259-.19998.08265-.24104.18296s-.02422.21481.0436.29934c1.94597,2.42521,4.70213,4.16172,7.85576,4.82355.69635,1.05396,1.88861,1.75122,3.24634,1.75122,1.45642,0,2.71094-.80945,3.37811-1.99408,5.6864-1.65521,9.84546-6.89594,9.84546-13.11658Z"/></svg>