<svg id="Icons" xmlns="http://www.w3.org/2000/svg" viewBox="0 0 32 32"><title>KnowledgeGraphLayer32</title><path d="M31,28s-6-3-15,0S1,28,1,28L5,4s6,2,11,0S27,4,27,4Z" style="fill:#e5d255"/><rect width="32" height="32" style="fill:none"/><path d="M23.0813,26.68921l1.571-5.7605A3.00027,3.00027,0,0,0,24,15a2.961,2.961,0,0,0-1.50586.40723l-3.50293-2.18946C18.99707,13.14551,19,13.07227,19,13a3,3,0,0,0-6,0,2.84707,2.84707,0,0,0,.07715.66211l-2.97656,2.55078A2.93222,2.93222,0,0,0,9,16a3.00013,3.00013,0,0,0-.71387,5.91406L9.001,24.77441a2.96678,2.96678,0,0,0,.09881,4.52771A25.16318,25.16318,0,0,0,16,28,25.10866,25.10866,0,0,1,23.0813,26.68921Z" style="fill:#f4eec8"/><path d="M15.96289,12.50488,8.55176,18.85742l2.12207,8.48535,10.61426,2.12256,3.17578-11.647Zm.56824,7.96576-6.68286-1.6709,5.84747-5.012Zm-.03028-6.68573,6.63862,4.14881-5.80884,2.48956Zm.38977,7.89038,3.38642,6.7724-8.46527-1.69354Zm.65674-.47455,5.84906-2.50695-2.5072,9.191ZM9.55005,19.54987l6.69714,1.67407-5.02942,4.99573Z" style="fill:#828282"/><circle cx="21" cy="29" r="2" style="fill:#57a6d9"/><circle cx="21" cy="29" r="1" style="fill:#d3eaf9"/><circle cx="17" cy="21" r="2" style="fill:#57a6d9"/><circle cx="17" cy="21" r="1" style="fill:#d3eaf9"/><circle cx="9" cy="19" r="2" style="fill:#57a6d9"/><circle cx="9" cy="19" r="1" style="fill:#d3eaf9"/><circle cx="11" cy="27" r="2" style="fill:#9182bd"/><circle cx="11" cy="27" r="1" style="fill:#c5bddd"/><circle cx="16" cy="13" r="2" style="fill:#9182bd"/><circle cx="16" cy="13" r="1" style="fill:#c5bddd"/><circle cx="24" cy="18" r="2" style="fill:#9182bd"/><circle cx="24" cy="18" r="1" style="fill:#c5bddd"/></svg>