<?xml version="1.0" encoding="UTF-8"?><svg id="Icons" xmlns="http://www.w3.org/2000/svg" viewBox="0 0 16 16"><path d="m16,13.4004s-3.20021-1.6016-8,0c-4.79981,1.5996-8,0-8,0L2.13279.5996s3.20121,1.0664,5.86721,0,5.86719,0,5.86719,0l2.13281,12.8008Z" style="fill:#e9d133;"/><rect width="16" height="16" style="fill:none;"/><rect width="16" height="16" style="fill:none;"/><circle cx="8" cy="7" r="5" style="fill:#d9efd9;"/><circle cx="8" cy="7" r="4" style="fill:#0d9636;"/><polygon points="10 7 7 5 7 9 10 7" style="fill:#d9efd9;"/><path d="m16,13.40039l-.59595-3.57678c-.67133-.50946-1.49823-.82361-2.40405-.82361-2.20557,0-4,1.79395-4,4,0,.03638.00977.07007.01074.1062,4.23151-1.08038,6.98926.29419,6.98926.29419Z" style="fill:#f8f8f8;"/><circle cx="13" cy="13" r="2.9" style="fill:#c7552e;"/></svg>