<?xml version="1.0" encoding="UTF-8"?><svg id="Icons" xmlns="http://www.w3.org/2000/svg" viewBox="0 0 16 16"><rect width="16" height="16" style="fill:none; stroke-width:0px;"/><rect width="16" height="16" style="fill:none; stroke-width:0px;"/><polygon points="15 16 2 16 2 0 11.40039 0 15 3.5996 15 16" style="fill:#6e6e6e; stroke-width:0px;"/><polygon points="11.31049 1 3 1 3 15 14 15 14 3.6895 11.31049 1" style="fill:#f8f8f8; stroke-width:0px;"/><rect x="10" y="1" width="1" height="4" style="fill:#6e6e6e; stroke-width:0px;"/><rect x="10" y="4" width="5" height="1" style="fill:#6e6e6e; stroke-width:0px;"/><rect x="0" y="4" width="10" height="9" rx="1.5" ry="1.5" style="fill:#6e6e6e; stroke-width:0px;"/><rect x="1.5" y="4.5" width="7" height="8" rx=".5" ry=".5" transform="translate(13.5 3.5) rotate(90)" style="fill:#f8f8f8; stroke-width:0px;"/><rect x="2.00001" y="6" width="6" height="5" style="fill:#d17e21; stroke-width:0px;"/><rect x="3.50001" y="6.5" width="3" height="4" transform="translate(13.50001 3.49999) rotate(90)" style="fill:#ff9f33; stroke-width:0px;"/><polygon points="3.00001 9.5 3.00001 7 7.00001 7 7.00001 9.5 6 8 5.00001 9.5 4.00001 8.5 3.00001 9.5" style="fill:#fbe2c3; stroke-width:0px;"/></svg>