<svg width="16" height="16" viewBox="0 0 16 16" fill="none" xmlns="http://www.w3.org/2000/svg">
  <path d="M9 14.1338C9.2989 14.3067 9.5 14.6299 9.5 15C9.5 15.5523 9.05228 16 8.5 16C7.94772 16 7.5 15.5523 7.5 15C7.5 14.6299 7.7011 14.3067 8 14.1338L8 11.5H9L9 14.1338Z" fill="black"/>
  <path fill-rule="evenodd" clip-rule="evenodd" d="M8.5 10C10.433 10 12 8.433 12 6.5C12 4.567 10.433 3 8.5 3C6.567 3 5 4.567 5 6.5C5 8.433 6.567 10 8.5 10ZM8.5 9C9.88071 9 11 7.88071 11 6.5C11 6.38011 10.9916 6.26218 10.9752 6.14679L8.14679 8.97524C8.26218 8.99156 8.38011 9 8.5 9ZM7.12174 8.58609L10.5861 5.12174C10.4004 4.8412 10.1596 4.60031 9.87912 4.41448L6.41448 7.87912C6.60031 8.15958 6.8412 8.40037 7.12174 8.58609ZM6.02494 6.85446L8.85446 4.02494C8.73867 4.0085 8.62033 4 8.5 4C7.11929 4 6 5.11929 6 6.5C6 6.62033 6.0085 6.73867 6.02494 6.85446Z" fill="#0BA3DE"/>
  <path fill-rule="evenodd" clip-rule="evenodd" d="M8.5 12C11.5376 12 14 9.53757 14 6.5C14 3.46243 11.5376 1 8.5 1C5.46243 1 3 3.46243 3 6.5C3 9.53757 5.46243 12 8.5 12ZM8.5 11C10.9853 11 13 8.98528 13 6.5C13 4.01472 10.9853 2 8.5 2C6.01472 2 4 4.01472 4 6.5C4 8.98528 6.01472 11 8.5 11Z" fill="#0BA3DE"/>
  </svg>
