<?xml version="1.0" encoding="UTF-8"?><svg id="Icons" xmlns="http://www.w3.org/2000/svg" viewBox="0 0 16 16"><path d="m16.00002,14.4s-3.20001-1.59998-8,0C3.20003,16.00003.00002,14.4.00002,14.4L1.43002,5.82004l.70001-4.22003s1.82001.60999,3.87.46002c.65997-.06,1.34998-.20001,2-.46002,2.66998-1.07001,5.87,0,5.87,0l2.13,12.79999Z" style="fill:#e5d255; stroke-width:0px;"/><path d="m14.75592,6.92377l-2.12311-1.70404c-.18262-.14648-.4043-.21973-.62598-.21973-.00232,0-.00452.00116-.00684.00116v-1.59882c0-.30371-.1377-.58984-.37402-.78027l-1.80634-1.44977c-.60565.06152-1.22534.18951-1.81964.42767-.65002.26001-1.34003.40002-2,.46002-.32257.02362-.63483.0238-.93982.01508l-.68323.54602c-.2373.18945-.37598.47754-.37598.78125v1.59863c-.21875.00134-.43719.07355-.61816.21777l-2.13733,1.70819-.5495,3.29694,2.68195,2.14624c.18207.14508.40302.21796.62305.21844v.59796c0,.30371.1377.59082.375.78125l1.25134,1.0014c.73669-.10956,1.52826-.28772,2.37268-.56921,1.43921-.47974,2.73071-.66833,3.83911-.70209.0946-.15503.16089-.32526.16089-.51135v-.59814c.00098,0,.00195.00049.00293.00049.22168,0,.44238-.07324.625-.21973l2.67706-2.14581-.54907-3.29956Z" style="fill:#f4eec8; stroke-width:0px;"/><polygon points="8.00266 12.30401 8.00266 15.5889 5.0007 13.18678 5.0007 12.40213 8.00266 12.30401" style="fill:#3b8fc4; stroke-width:0px;"/><polygon points="11 3.40213 11 4.18678 8.00266 6.5889 8.00266 3.30401 11 3.40213" style="fill:#275e26; stroke-width:0px;"/><polygon points="8.00266 3.30401 8.00266 6.5889 5.0007 4.18678 5.0007 3.40213 8.00266 3.30401" style="fill:#5b945a; stroke-width:0px;"/><polygon points="8.00643 1 5 3.40213 8.00266 5.80423 11 3.40213 8.00643 1" style="fill:#9bc29c; stroke-width:0px;"/><polygon points="7 8.40213 7 9.18678 4.00266 11.5889 4.00266 8.30401 7 8.40213" style="fill:#196fa6; stroke-width:0px;"/><polygon points="4.00266 8.30401 4.00266 11.5889 1.0007 9.18678 1.0007 8.40213 4.00266 8.30401" style="fill:#3b8fc4; stroke-width:0px;"/><polygon points="11 12.40213 11 13.18678 8.00266 15.5889 8.00266 12.30401 11 12.40213" style="fill:#196fa6; stroke-width:0px;"/><polygon points="15 8.40213 15 9.18678 12.00266 11.5889 12.00266 8.30401 15 8.40213" style="fill:#196fa6; stroke-width:0px;"/><polygon points="12.00266 8.30401 12.00266 11.5889 9.0007 9.18678 9.0007 8.40213 12.00266 8.30401" style="fill:#3b8fc4; stroke-width:0px;"/><polygon points="5 12.4021 8.00269 14.8042 11 12.4021 8.00641 10 5 12.4021" style="fill:#6db5e3; stroke-width:0px;"/><polygon points="4.00641 6 1 8.4021 4.00269 10.8042 7 8.4021 4.00641 6" style="fill:#6db5e3; stroke-width:0px;"/><polygon points="12.00641 6 9 8.4021 12.00269 10.8042 15 8.4021 12.00641 6" style="fill:#6db5e3; stroke-width:0px;"/><path d="m-.0005,14l1.21969-6.9219c.1084-.04.2178-.0781.336-.0781h3.8886c.3086,0,.5996.1426.7891.3857l1.5557,2c.1367.1758.21091.3916.21091.6143l.00316,5.5889-1.00316-.78725L-.0005,14" style="fill:#f4eec8; fill-rule:evenodd; stroke-width:0px;"/><rect y="11" width="6.9995" height="5" style="fill:#d3b490; stroke-width:0px;"/><polygon points="7 10 .0005 10 1.55569 8 5.44429 8 7 10" style="fill:#d3b490; fill-rule:evenodd; stroke-width:0px;"/><polygon points="3.5 11.5 1 14 3 14 3 15 4 15 4 14 6 14 3.5 11.5" style="fill:#595959; fill-rule:evenodd; stroke-width:0px;"/><polygon points="4 10 4 8 3 8 3 10 0 10 0 11 7 11 7 10 4 10" style="fill:#e9ded4; fill-rule:evenodd; stroke-width:0px;"/></svg>