<?xml version="1.0" encoding="UTF-8"?><svg id="Icons" xmlns="http://www.w3.org/2000/svg" viewBox="0 0 16 16"><path d="m0,11.02344c0,1.09163.88494,1.97656,1.97656,1.97656h9.02344V3h-2l.00009-3H1.90815C.85431,0,0,.85431,0,1.90815v9.11529Z" style="fill:#49b0f2; stroke-width:0px;"/><path d="m9,3l.00006-3h-1.10083c-.65295.34613-1.14044.94873-1.31134,1.66895-.95215.47363-1.58789,1.43555-1.58789,2.50879,0,1.08392.64502,2.01636,1.57849,2.48895-1.31793.53412-2.43109,1.42706-3.04236,2.49054-.16095.27997-.27698.56824-.36609.86005h-1.17865c-.54755,0-.99139.44385-.99139.99139,0,.54749.44385.99133.99133.99133h1.13324c.02515.10382.03381.20807.06781.31152l.24316.68848h7.56445V3h-2Z" style="fill:#f8f8f8; stroke-width:0px;"/><rect width="16" height="16" style="fill:none; stroke-width:0px;"/><rect x="1" y="1" width="1" height="8" style="fill:#bddbee; stroke-width:0px;"/><path d="m15.73769,10.45426c-.57805-1.0559-2.36575-1.1461-3.64435-1.29724.17711-2.4008-1.77765-2.56874-4.11334-1.98584v-.00317c-2.34584.49911-4.60575,2.45324-3.85785,4.73199h.01764c.71344,2.15694,3.46638,3.02179,5.76709,2.99628,3.27868-.06847,7.1257-2.07868,5.83081-4.44202Z" style="fill:#6e6e6e; stroke-width:0px;"/><path d="m9.72948,13.99841c-1.59961-.00098-3.12744-.51172-3.98828-1.33398-.49463-.47168-.74365-.99414-.74121-1.55566.00635-1.63281,2.17676-2.99805,4.94189-3.10742l.15332-.00293c.26318,0,.64648.04395.84961.25195.18652.19043.2041.48633.17139.93359-.03955.53516.35059,1.00586.8833,1.06641l.31689.03613c1.02344.11621,2.29736.26074,2.56445.74805.17578.32129.15771.64355-.05469.98633-.72949,1.1709-3.12207,1.9375-4.92041,1.97559l-.17627.00195Z" style="fill:#efefef; stroke-width:0px;"/><rect x="8" y="9" width="1" height="1" style="fill:#9bc29c; stroke-width:0px;"/><path d="m13.6366,9.35254l-.80261.47461-3.06079,2.59406c-.96796.14404-1.63135.84296-1.65308,1.80145-.00269.11292-.15564.28918-.33234.43463.70349.16296,1.42981.24658,2.11908.23895.90771-.01892,1.85608-.19098,2.72974-.47388l2.37219-2.01123.98279-1.06671c-.00867-.28876-.0874-.58636-.25391-.8902-.36383-.66467-1.20721-.94629-2.10107-1.10168Z" style="fill:#f8f8f8; stroke-width:0px;"/><path d="m11.10169,14.46366l-.91351-1.07254s-1.04796-.06124-1.0682.8537c-.02014.90485-1.11901,1.47292-1.11901,1.47292,0,0,.3985.25779.99936.28067.30197.0115.65505-.03755,1.03433-.20603,1.13398-.50369,1.06703-1.32872,1.06703-1.32872Z" style="fill:#a67a47; stroke-width:0px;"/><rect x="8" y="12" width="1" height="1" style="fill:#c96b4b; stroke-width:0px;"/><rect x="6" y="10" width="1" height="1" style="fill:#57a6d9; stroke-width:0px;"/><path d="m15.05275,3.40638c.03133-.1216.05042-.24707.05042-.3771,0-.86509-.74092-1.56697-1.6565-1.56697-.02558,0-.05083.00229-.0765.00386-.20508-.83971-.99767-1.46617-1.94742-1.46617-.67458,0-1.27033.31713-1.6325.80118-.19242-.07463-.40317-.11695-.62417-.11695-.90817,0-1.64425.69723-1.64425,1.55617,0,.05233.00283.10316.00767.1547-.87317.17236-1.5295.90505-1.5295,1.78243,0,1.00663.86225,1.82168,1.92667,1.82247h6.66425c.77842-.00158,1.40908-.59801,1.40908-1.33527,0-.58264-.39592-1.07669-.94725-1.25835Z" style="fill:#57a6d9; stroke-width:0px;"/><path d="m7.92676,5c-.51074,0-.92676-.36914-.92676-.82227,0-.38184.30371-.71875.72266-.80078l.8877-.1748-.08594-.90039c-.00293-.36816.28613-.61719.6416-.61719.09082,0,.17969.0166.26367.04883l.70703.27246.45312-.60547c.18848-.25098.5-.40039.83301-.40039.46582,0,.87598.2959.97559.70312l.19434.79297s.82129-.03125.82324-.03125c.39648,0,.6875.25391.6875.56445,0,.03516-.00684.07812-.01953.12695l-.2334.90723.88965.29297c.12891.04199.25977.1543.25977.30859,0,.18066-.18848.33398-.41211.33496h-6.66113Z" style="fill:#d3eaf9; stroke-width:0px;"/><path d="m15.91991,9.49677c-.1253-.14834-.35236-.16344-.50508-.03373l-1.99894,1.18138-2.70923,2.29585.88986,1.05285,2.71881-2.30444,1.55397-1.68686c.15358-.13095.17591-.35671.05061-.50504Z" style="fill:#6e6e6e; stroke-width:0px;"/></svg>