<?xml version="1.0" encoding="UTF-8"?><svg id="Layer_1" xmlns="http://www.w3.org/2000/svg" viewBox="0 0 16 16"><g id="Icons"><rect x="9" y="7" width="4" height="1" style="fill:#6e6e6e; stroke-width:0px;"/><rect x="4.16" y="2.51" width="1" height="4.31" transform="translate(-1.94 4.66) rotate(-45.01)" style="fill:#6e6e6e; stroke-width:0px;"/><rect x="2.5" y="9.81" width="4.31" height="1" transform="translate(-5.93 6.32) rotate(-45.01)" style="fill:#6e6e6e; stroke-width:0px;"/><path d="m9.99,7.5c0,1.38-1.12,2.49-2.49,2.49-1.38,0-2.49-1.12-2.49-2.49,0-1.38,1.12-2.49,2.49-2.49,1.37,0,2.49,1.11,2.49,2.49h0Z" style="fill:#b88b55; stroke-width:0px;"/><rect width="16" height="16" style="fill:none; stroke-width:0px;"/><path d="m4,5H1C.45,5,0,4.55,0,4c0,0,0,0,0,0V1C0,.45.44,0,1,0c0,0,0,0,0,0h3c.55,0,1,.45,1,1,0,0,0,0,0,0v3c0,.55-.45,1-1,1,0,0,0,0,0,0Z" style="fill:#57a6d9; stroke-width:0px;"/><path d="m15,10h-3c-.55,0-1-.45-1-1,0,0,0,0,0,0v-3c0-.55.44-1,1-1,0,0,0,0,0,0h3c.55,0,1,.45,1,1,0,0,0,0,0,0v3c0,.55-.45,1-1,1h0Z" style="fill:#68aa67; stroke-width:0px;"/><path d="m4,15H1C.45,15,0,14.55,0,14c0,0,0,0,0,0v-3c0-.55.45-1,1-1,0,0,0,0,0,0h3c.55,0,1,.45,1,1h0v3c0,.55-.45,1-1,1h0Z" style="fill:#57a6d9; stroke-width:0px;"/><path d="m9.01,7.5c0,.83-.68,1.51-1.51,1.51s-1.51-.68-1.51-1.51c0-.83.68-1.51,1.51-1.51.83,0,1.51.68,1.51,1.51h0Z" style="fill:#f0e498; stroke-width:0px;"/><rect x="1" y="1" width="3" height="3" style="fill:#bddbee; stroke-width:0px;"/><rect x="12" y="6" width="3" height="3" style="fill:#ddeedb; stroke-width:0px;"/><rect x="1" y="11" width="3" height="3" style="fill:#bddbee; stroke-width:0px;"/></g></svg>