<?xml version="1.0" encoding="UTF-8"?><svg id="Icons" xmlns="http://www.w3.org/2000/svg" viewBox="0 0 32 32"><polygon points="17.49997 32.00001 29.79172 25.50001 13.49991 19.00001 .99997 24.5 17.49997 32.00001" style="fill:#68aa67; stroke-width:0px;"/><polygon points="3.46384 24.50877 13.52536 20.08104 27.38086 25.64355 17.46387 30.8877 3.46384 24.50877" style="fill:#ddeedb; stroke-width:0px;"/><polygon points="20.99997 21.80861 16.99997 23.80861 16.99997 27.69099 23.99997 24.19142 23.99997 14.3091 20.99997 15.8091 20.99997 21.80861" style="fill:#f7cb93; stroke-width:0px;"/><polygon points="7.99994 24.16992 15.99997 27.74202 15.99997 23.83021 7.99994 20.25879 7.99994 24.16992" style="fill:#eeaa5a; stroke-width:0px;"/><polygon points="20 15.8302 11.99997 12.25877 11.99997 17.16991 20 20.74121 20 15.8302" style="fill:#e89d48; stroke-width:0px;"/><polygon points="11.51654 18.05078 8.68799 19.46466 16.48477 22.94899 19.31217 21.53535 11.51654 18.05078" style="fill:#fbe2c3; stroke-width:0px;"/><polygon points="20.4834 14.94922 23.31177 13.53503 15.51657 10.05077 12.6879 11.46471 20.4834 14.94922" style="fill:#fbe2c3; stroke-width:0px;"/><path d="M10.99994,11.19141v6l-4,2v5.63867l9.51663,4.22072,8.4834-4.24219v-11.63867l-9.51663-4.22072-4.4834,2.24219ZM11.99994,12.25879l8.00003,3.57143v4.91101l-8.00003-3.5713v-4.91113ZM15.99997,27.74202l-8.00003-3.5721v-3.91113l8.00003,3.57143v3.9118ZM16.48477,22.94899l-7.79678-3.48433,2.82855-1.41388,7.79562,3.48457-2.82739,1.41364ZM23.99997,24.19142l-7,3.49957v-3.88239l4-2v-5.99951l3-1.5v9.88232ZM23.31174,13.53505l-2.82837,1.41418-7.7955-3.48451,2.82867-1.41394,7.79519,3.48427Z" style="fill:#a67032; stroke-width:0px;"/><path d="M15.10547,10.59961c-.19525-.19531-.45117-.29303-.70709-.29303-.2558,0-.51172.09772-.70697.29303l-1.69141,1.69135v-1.59967l-1.00006.50012v6l-2.29547,1.14771.58856.58856c.19525.19531.45105.29303.70697.29303.25586,0,.51166-.09772.70697-.29303l5-5c.1875-.1875.29303-.44141.29303-.70697v-1.3125c0-.26562-.10553-.51953-.29303-.70703l-.6015-.60156Z" style="fill:#f8f8f8; fill-rule:evenodd; stroke-width:0px;"/><polygon points="5 13.2207 10 18.2207 15 13.2207 15 11.9082 14.39839 11.3066 11 14.7051 11 9 9 9 9 14.7051 5.60159 11.3066 5 11.9082 5 13.2207" style="fill:#6e6e6e; fill-rule:evenodd; stroke-width:0px;"/><polygon points="8.7555 -.00001 3.30547 8 23 8 26.7555 -.00001 8.7555 -.00001" style="fill:#3b8fc4; stroke-width:0px;"/><path d="M17.43749,1h7.74415l-.93878,2h-7.93037l1.125-2ZM15.31249,3l1.125-2h-7.15331l-1.3623,2h7.39061ZM15.75,4l-1.68751,3h8.30274l1.4082-3h-8.02344ZM14.75,4h-7.50928l-2.04346,3h7.86522l1.68751-3Z" style="fill:#d3eaf9; stroke-width:0px;"/><rect width="32" height="32" style="fill:none; stroke-width:0px;"/></svg>