<svg width="32" height="32" viewBox="0 0 32 32" fill="none" xmlns="http://www.w3.org/2000/svg">
  <path d="M15 28.0854C15.5826 28.2913 16 28.8469 16 29.5C16 30.3284 15.3284 31 14.5 31C13.6716 31 13 30.3284 13 29.5C13 28.8469 13.4174 28.2913 14 28.0854V22H15V28.0854Z" fill="black"/>
  <path fill-rule="evenodd" clip-rule="evenodd" d="M14.5 20C18.6421 20 22 16.6421 22 12.5C22 8.35786 18.6421 5 14.5 5C10.3579 5 7 8.35786 7 12.5C7 16.6421 10.3579 20 14.5 20ZM20.9519 11.7049L13.7049 18.9519C12.9333 18.8578 12.2035 18.6285 11.5399 18.2884L20.2884 9.5399C20.6285 10.2035 20.8578 10.9333 20.9519 11.7049ZM15.0981 18.9729C18.2106 18.6889 20.6889 16.2106 20.9729 13.0981L15.0981 18.9729ZM19.7488 8.66524L10.6652 17.7488C10.1243 17.353 9.64689 16.8755 9.25105 16.3346L18.3346 7.25105C18.8755 7.64689 19.353 8.12433 19.7488 8.66524ZM17.4599 6.71151L8.71151 15.4599C8.37146 14.7963 8.1422 14.0665 8.04812 13.2949L15.2949 6.04812C16.0665 6.1422 16.7963 6.37146 17.4599 6.71151ZM8.02717 11.9016L13.9016 6.02717C10.7893 6.31124 8.31124 8.78931 8.02717 11.9016Z" fill="#0BA3DE"/>
  <path fill-rule="evenodd" clip-rule="evenodd" d="M25 12.5C25 18.299 20.299 23 14.5 23C8.70101 23 4 18.299 4 12.5C4 6.70101 8.70101 2 14.5 2C20.299 2 25 6.70101 25 12.5ZM24 12.5C24 17.7467 19.7467 22 14.5 22C9.25329 22 5 17.7467 5 12.5C5 7.25329 9.25329 3 14.5 3C19.7467 3 24 7.25329 24 12.5Z" fill="#0BA3DE"/>
  </svg>
